<?xml version="1.0" encoding="UTF-8"?>
<svg width="152px" height="152px" viewBox="0 0 152 152" version="1.1" xmlns="http://www.w3.org/2000/svg" xmlns:xlink="http://www.w3.org/1999/xlink">
    <!-- Generator: Sketch 53.2 (72643) - https://sketchapp.com -->
    <title>icon-settings</title>
    <desc>Created with Sketch.</desc>
    <g id="Page-1" stroke="none" stroke-width="1" fill="none" fill-rule="evenodd">
        <g id="Artboard" transform="translate(-535.000000, -1147.000000)">
            <g id="icon-settings" transform="translate(535.000000, 1147.000000)">
                <g id="icon-members">
                    <rect id="Rectangle" fill-opacity="0.01" fill="#191919" x="0" y="0" width="152" height="152"></rect>
                    <path d="M56.6646926,28.0552824 L59.148456,7 L91.0641173,7 L94.6075376,28.0552824 L107.024125,34.4125154 L126.365216,27.2701105 L142.5,55.5641828 L126.365216,69.1413476 L126.365216,82.9034719 L142.5,96.691478 L126.365216,124.701798 L106.10546,117.396212 L94.6075376,124.701798 L91.0641173,145 L59.148456,145 L56.6646926,125.742747 L44.558455,117.396212 L26.2875185,125.742747 L8.5,96.691478 L25.0745239,82.9034719 L25.0745239,69.1413476 L8.5,55.5641828 L26.2875185,27.2701105 L44.558455,35.3452788 C47.1313484,33.7959631 49.1490547,32.5809637 50.6115738,31.7002806 C52.0740929,30.8195975 54.0917991,29.6045981 56.6646926,28.0552824 Z M76.5,97 C88.6502645,97 98.5,87.1502645 98.5,75 C98.5,62.8497355 88.6502645,53 76.5,53 C64.3497355,53 54.5,62.8497355 54.5,75 C54.5,87.1502645 64.3497355,97 76.5,97 Z" id="icon-settings" fill="#FFFFFF"></path>
                </g>
            </g>
        </g>
    </g>
</svg>