<?xml version="1.0" encoding="UTF-8"?>
<svg width="152px" height="153px" viewBox="0 0 152 153" version="1.1" xmlns="http://www.w3.org/2000/svg" xmlns:xlink="http://www.w3.org/1999/xlink">
    <!-- Generator: Sketch 53.2 (72643) - https://sketchapp.com -->
    <title>icon-recognition</title>
    <desc>Created with Sketch.</desc>
    <g id="Page-1" stroke="none" stroke-width="1" fill="none" fill-rule="evenodd">
        <g id="Artboard" transform="translate(-535.000000, -205.000000)">
            <g id="icon-recognition" transform="translate(535.000000, 205.500000)">
                <rect id="Rectangle" fill-opacity="0.01" fill="#191919" x="0" y="0" width="152" height="152"></rect>
                <path d="M79.7906977,101.507585 L79.7906977,110.428571 C81.4212698,113.596093 83.4367737,116.389744 85.8372093,118.809524 C87.4460681,120.431348 89.155841,121.955157 90.966528,123.380952 L107,123.380952 L107,131 L42,131 L42,123.380952 L59.5450999,123.380952 C61.3557869,121.955157 63.0655598,120.431348 64.6744186,118.809524 C67.0748542,116.389744 69.0903581,113.596093 70.7209302,110.428571 L70.7209302,101.61012 C67.3038237,100.967748 64.1536966,99.5315892 61.2705489,97.3016429 C33.090183,95.6215856 19,75.2820443 19,36.2830189 L39.845574,36.2830189 C39.3661243,31.4547331 38.9761582,26.3603935 38.6756757,21 L111.324324,21 C111.023842,26.3603935 110.633876,31.4547331 110.154426,36.2830189 L131,36.2830189 C131,75.2820443 116.909817,95.6215856 88.7294511,97.3016429 C85.9907625,99.4198586 83.011178,100.821839 79.7906977,101.507585 Z M40.9583273,45.8418995 L29.4518103,45.8418995 C32.1964354,68.0710615 39.9554782,81.8129862 52.7289387,87.0676793 C47.3284093,77.7171698 43.4048724,63.975245 40.958328,45.8419049 Z M109.041672,45.8419049 C106.595128,63.975245 102.671591,77.7171698 97.2710613,87.0676793 C110.044522,81.8129862 117.803565,68.0710615 120.54819,45.8418995 L109.041673,45.8418995 Z" fill="#FFFFFF"></path>
            </g>
        </g>
    </g>
</svg>