<?xml version="1.0" encoding="UTF-8"?>
<svg width="76px" height="76px" viewBox="0 0 76 76" version="1.1" xmlns="http://www.w3.org/2000/svg" xmlns:xlink="http://www.w3.org/1999/xlink">
    <!-- Generator: Sketch 53.2 (72643) - https://sketchapp.com -->
    <title>icon-money</title>
    <desc>Created with Sketch.</desc>
    <defs>
        <path d="M38,76 C17.0131795,76 0,58.9868205 0,38 C0,17.0131795 17.0131795,0 38,0 C58.9868205,0 76,17.0131795 76,38 C76,58.9868205 58.9868205,76 38,76 Z M38,68 C54.0162577,68 67,55.0162577 67,39 C67,22.9837423 54.0162577,10 38,10 C21.9837423,10 9,22.9837423 9,39 C9,55.0162577 21.9837423,68 38,68 Z" id="path-1"></path>
    </defs>
    <g id="Page-1" stroke="none" stroke-width="1" fill="none" fill-rule="evenodd">
        <g id="icon-money">
            <g id="icon-clock">
                <g id="Path-2">
                    <mask id="mask-2" fill="white">
                        <use xlink:href="#path-1"></use>
                    </mask>
                    <use id="Mask" fill="#00ADF2" xlink:href="#path-1"></use>
                    <path d="M61.3486641,2.12777456 C70.2429087,13.5137287 70.2429087,39.3936169 63.319282,33.2288621 C56.3956554,27.0641072 46.9501547,64.5094266 42.093323,64.0455217 C33.7503313,63.248633 34.2245059,64.5196544 43.5158468,67.858586 C54.9281754,71.0575994 67.0219014,67.3541686 79.7970248,56.7482935 C98.9597099,40.8394809 65.9121987,5.16203243 61.3486641,2.12777456 Z" fill="#FDD22D" mask="url(#mask-2)"></path>
                </g>
            </g>
            <g id="Group-7" transform="translate(28.000000, 21.000000)" fill="#00ADF2">
                <path d="M5.05919244,22.5167336 C5.05919244,23.4163365 5.20338588,24.1784886 5.49177707,24.8032129 C5.78016826,25.4279371 6.16283546,25.9339561 6.63979012,26.3212851 C7.11674479,26.7086142 7.67688082,26.995983 8.32021503,27.1834003 C8.96354923,27.3708175 9.62905739,27.4645248 10.3167595,27.4645248 C10.7826222,27.4645248 11.2817533,27.4207947 11.8141678,27.3333333 C12.3465823,27.2458719 12.8457134,27.0771989 13.3115761,26.8273092 C13.7774388,26.5774195 14.1656519,26.2338264 14.476227,25.7965194 C14.7868022,25.3592124 14.9420874,24.8032162 14.9420874,24.1285141 C14.9420874,23.4038339 14.7368891,22.816602 14.3264862,22.3668005 C13.9160834,21.9169991 13.3781309,21.5421702 12.7126128,21.2423025 C12.0470947,20.9424349 11.2928521,20.6800547 10.4498624,20.4551539 C9.60687278,20.2302532 8.75280398,19.9803673 7.8876304,19.7054886 C7.00027288,19.4555989 6.13511227,19.1494886 5.29212263,18.7871486 C4.44913298,18.4248085 3.6948904,17.9562724 3.02937226,17.3815261 C2.36385412,16.8067798 1.82590169,16.0883577 1.41549884,15.2262383 C1.00509598,14.3641188 0.799897636,13.320845 0.799897636,12.0963855 C0.799897636,10.7219922 1.060555,9.52878685 1.58187754,8.5167336 C2.10320009,7.50468035 2.78534595,6.66131529 3.62833559,5.98661312 C4.47132524,5.31191095 5.42522026,4.81213906 6.49004929,4.48728246 C7.55487832,4.16242586 8.61969137,4 9.68452039,4 C10.9268209,4 12.1191897,4.15617871 13.2616625,4.46854083 C14.4041353,4.78090295 15.4190353,5.28692198 16.3063928,5.98661312 C17.1937503,6.68630426 17.8980798,7.57964651 18.4194023,8.66666667 C18.9407249,9.75368683 19.2013822,11.0718352 19.2013822,12.6211513 L14.1434696,12.6211513 C14.0991018,11.8215043 13.9493624,11.1593065 13.6942471,10.6345382 C13.4391319,10.1097698 13.1008319,9.69745799 12.6793371,9.39759036 C12.2578422,9.09772273 11.7753488,8.88531968 11.2318423,8.76037483 C10.6883359,8.63542999 10.0949244,8.5729585 9.45159021,8.5729585 C9.03009539,8.5729585 8.60860689,8.62293569 8.18711206,8.72289157 C7.76561724,8.82284744 7.38295005,8.9977676 7.03909901,9.2476573 C6.69524797,9.49754699 6.412407,9.80990442 6.19056762,10.184739 C5.96872824,10.5595735 5.85781022,11.0343568 5.85781022,11.6091031 C5.85781022,12.1338714 5.94654464,12.5586775 6.12401614,12.8835341 C6.30148765,13.2083907 6.65087943,13.5082539 7.17220197,13.7831325 C7.69352452,14.0580112 8.41449169,14.3328857 9.33512512,14.6077644 C10.2557585,14.8826431 11.4592191,15.2324834 12.945543,15.6572959 C13.3892217,15.7572517 14.0048168,15.938419 14.7923466,16.2008032 C15.5798764,16.4631874 16.3618485,16.8817463 17.1382863,17.4564926 C17.9147241,18.0312389 18.5857782,18.7996382 19.1514686,19.7617135 C19.717159,20.7237888 20,21.9544771 20,23.4538153 C20,24.6782748 19.7892557,25.8152558 19.3677609,26.8647925 C18.9462661,27.9143292 18.3195793,28.8201658 17.4876816,29.5823293 C16.6557839,30.3444929 15.6242463,30.937972 14.3930377,31.3627845 C13.1618291,31.7875969 11.7365325,32 10.117105,32 C8.80825268,32 7.53824128,31.8188327 6.30703272,31.4564926 C5.07582416,31.0941526 3.9888275,30.5256621 3.04601013,29.751004 C2.10319276,28.976346 1.35449609,27.9892965 0.799897636,26.789826 C0.245299185,25.5903554 -0.0209040782,24.1660056 0.00127985985,22.5167336 L5.05919244,22.5167336 Z" id="S" fill-rule="nonzero"></path>
                <rect id="Rectangle" x="8" y="0" width="4" height="5"></rect>
                <rect id="Rectangle" x="8" y="29" width="4" height="5"></rect>
            </g>
        </g>
    </g>
</svg>