<?xml version="1.0" encoding="UTF-8"?>
<svg width="76px" height="76px" viewBox="0 0 76 76" version="1.1" xmlns="http://www.w3.org/2000/svg" xmlns:xlink="http://www.w3.org/1999/xlink">
    <!-- Generator: Sketch 53.2 (72643) - https://sketchapp.com -->
    <title>icon-clock</title>
    <desc>Created with Sketch.</desc>
    <defs>
        <path d="M38,76 C17.0131795,76 0,58.9868205 0,38 C0,17.0131795 17.0131795,0 38,0 C58.9868205,0 76,17.0131795 76,38 C76,58.9868205 58.9868205,76 38,76 Z M38,68 C54.0162577,68 67,55.0162577 67,39 C67,22.9837423 54.0162577,10 38,10 C21.9837423,10 9,22.9837423 9,39 C9,55.0162577 21.9837423,68 38,68 Z" id="path-1"></path>
    </defs>
    <g id="Page-1" stroke="none" stroke-width="1" fill="none" fill-rule="evenodd">
        <g id="icon-clock">
            <g id="Path-2">
                <mask id="mask-2" fill="white">
                    <use xlink:href="#path-1"></use>
                </mask>
                <use id="Mask" fill="#00ADF2" xlink:href="#path-1"></use>
                <path d="M61.3486641,2.12777456 C70.2429087,13.5137287 70.2429087,39.3936169 63.319282,33.2288621 C56.3956554,27.0641072 46.9501547,64.5094266 42.093323,64.0455217 C33.7503313,63.248633 34.2245059,64.5196544 43.5158468,67.858586 C54.9281754,71.0575994 67.0219014,67.3541686 79.7970248,56.7482935 C98.9597099,40.8394809 65.9121987,5.16203243 61.3486641,2.12777456 Z" fill="#FDD22D" mask="url(#mask-2)"></path>
            </g>
            <g id="Group-5" transform="translate(23.000000, 21.000000)" fill="#00ADF2">
                <path d="M17,34 C7.61115925,34 0,26.3888407 0,17 C0,7.61115925 7.61115925,0 17,0 C26.3888407,0 34,7.61115925 34,17 C34,26.3888407 26.3888407,34 17,34 Z M17,31 C24.7319865,31 31,24.7319865 31,17 C31,9.2680135 24.7319865,3 17,3 C9.2680135,3 3,9.2680135 3,17 C3,24.7319865 9.2680135,31 17,31 Z" id="Combined-Shape"></path>
                <g id="Group-6" transform="translate(15.000000, 7.000000)">
                    <g id="Group-4">
                        <path d="M2,1 L2,13 L0,13 L0,1 C0,0.44771525 0.44771525,0 1,0 C1.55228475,0 2,0.44771525 2,1 Z" id="Combined-Shape"></path>
                        <path d="M10,11 C10.5522847,11 11,11.4477153 11,12 C11,12.5522847 10.5522847,13 10,13 L0,13 L0,11 L10,11 Z" id="Combined-Shape"></path>
                    </g>
                </g>
            </g>
        </g>
    </g>
</svg>