<?xml version="1.0" encoding="UTF-8"?>
<svg width="76px" height="76px" viewBox="0 0 76 76" version="1.1" xmlns="http://www.w3.org/2000/svg" xmlns:xlink="http://www.w3.org/1999/xlink">
    <!-- Generator: Sketch 53.2 (72643) - https://sketchapp.com -->
    <title>icon-helped</title>
    <desc>Created with Sketch.</desc>
    <defs>
        <path d="M38,76 C17.0131795,76 0,58.9868205 0,38 C0,17.0131795 17.0131795,0 38,0 C58.9868205,0 76,17.0131795 76,38 C76,58.9868205 58.9868205,76 38,76 Z M38,68 C54.0162577,68 67,55.0162577 67,39 C67,22.9837423 54.0162577,10 38,10 C21.9837423,10 9,22.9837423 9,39 C9,55.0162577 21.9837423,68 38,68 Z" id="path-1"></path>
    </defs>
    <g id="Page-1" stroke="none" stroke-width="1" fill="none" fill-rule="evenodd">
        <g id="icon-helped">
            <g id="Group-11" transform="translate(21.000000, 21.000000)" fill="#00ADF2">
                <g id="Group-10" transform="translate(9.263384, 0.000000)">
                    <path d="M7.81775204,9.69405568 C9.57135899,9.64425339 10.9871061,8 11.8106267,8 C11.8123761,8 11.8141255,8.0000012 11.8158749,8.0000036 C13.9282942,8.00290206 15.6383989,9.71770598 15.6355004,11.8301254 L15.6354801,11.8301253 C15.6344074,12.611917 15.6295327,13.2268266 15.6208562,13.6748543 C15.5615089,16.7393511 15.0978706,18.8995073 14.8988876,20.1854324 C14.6888586,21.5427427 12.6995596,21.466093 12.558469,22.4960859 C12.2639106,24.6464287 12.005142,26.9189442 11.7821809,29.3136339 C11.592704,31.3485268 9.92438542,32.9169415 7.89888763,32.9968058 L7.89888763,33 C7.87178398,33 7.84473791,32.9997334 7.81775204,32.9992026 C7.79076616,32.9997334 7.76372009,33 7.73661645,33 C7.73661645,32.9989353 7.73661645,32.9978705 7.73661645,32.9968058 C5.71111865,32.9169415 4.04280005,31.3485268 3.85332315,29.3136339 C3.63036206,26.9189442 3.37159343,24.6464287 3.07703502,22.4960859 C2.93594448,21.466093 0.946645501,21.5427427 0.736616448,20.1854324 C0.537633481,18.8995073 0.0739951666,16.7393511 0.0146478765,13.6748543 C0.00597133637,13.2268266 0.00109671723,12.611917 2.40190419e-05,11.8301253 L3.67900302e-06,11.8301254 C-0.00289477675,9.71770598 1.70720982,8.00290206 3.81962921,8.0000036 C3.82137858,8.0000012 3.82312796,8 3.82487733,8 C4.64839795,8 6.06414509,9.64425339 7.81775204,9.69405568 Z" id="Combined-Shape"></path>
                    <circle id="Oval" cx="7.73661645" cy="4" r="4"></circle>
                </g>
                <g id="Group-10" transform="translate(0.000000, 3.000000)">
                    <path d="M3.1608259,6.73317106 C3.1608259,6.73317106 3.1608259,6.73317106 3.1608259,6.73317106 C4.43378119,6.73317106 4.43378119,7.62958266 5.5834103,7.99804135 C6.3020049,8.22835252 7.29292091,7.99804135 7.81622123,7.99804135 C7.81622123,8.7802414 7.81622123,11.0261429 7.81622123,14.7357458 L7.81622055,14.7357458 C7.81622055,15.6746605 8.03657005,16.6004713 8.45954623,17.4387147 C8.93153623,18.3740925 9.28420641,19.2146707 9.51755678,19.9604494 C9.51755678,23.8570311 9.26338355,27 6,27 C6,27 6,27 6,27 L6,27 C4.40794245,27 3.08199699,25.7789514 2.9510826,24.1922855 C2.7763336,22.0744358 2.57174766,20.0692445 2.33731774,18.1767121 C2.23014527,17.3115181 0.719072517,17.3759039 0.559534316,16.2357632 C0.40838673,15.1555862 0.056206775,13.3410549 0.0111265362,10.7668776 C0.00705620535,10.5344531 0.00408737332,10.2485618 0.0022200401,9.90920359 L0.00222155316,9.90920359 C-0.00737735427,8.16475457 1.39899653,6.74281778 3.14344555,6.73321888 C3.14923894,6.733187 3.15503242,6.73317106 3.1608259,6.73317106 Z" id="Combined-Shape"></path>
                    <path d="M27.1586532,6.23317106 C27.1586532,6.23317106 27.1586532,6.23317106 27.1586532,6.23317106 C28.4316085,6.23317106 28.4316085,7.12958266 29.5812376,7.49804135 C30.2998322,7.72835252 31.2907482,7.49804135 31.8140485,7.49804135 C31.8140485,8.2802414 31.8140485,10.5261429 31.8140485,14.2357458 L31.8140478,14.2357458 C31.8140478,15.1746605 32.0343973,16.1004713 32.4573735,16.9387147 C32.9293635,17.8740925 33.2820337,18.7146707 33.5153841,19.4604494 C33.5153841,23.3570311 33.2612108,26.5 29.9978273,26.5 C29.9978273,26.5 29.9978273,26.5 29.9978273,26.5 L29.9978273,26.5 C28.4057697,26.5 27.0798243,25.2789514 26.9489099,23.6922855 C26.7741609,21.5744358 26.569575,19.5692445 26.335145,17.6767121 C26.2279726,16.8115181 24.7168998,16.8759039 24.5573616,15.7357632 C24.406214,14.6555862 24.0540341,12.8410549 24.0089538,10.2668776 C24.0048835,10.0344531 24.0019147,9.74856176 24.0000473,9.40920359 L24.0000488,9.40920359 C23.9904499,7.66475457 25.3968238,6.24281778 27.1412728,6.23321888 C27.1470662,6.233187 27.1528597,6.23317106 27.1586532,6.23317106 Z" id="Combined-Shape" transform="translate(28.757692, 16.366586) scale(-1, 1) translate(-28.757692, -16.366586) "></path>
                    <circle id="Oval" cx="6" cy="3.5" r="3"></circle>
                    <circle id="Oval" transform="translate(28.000000, 3.000000) scale(-1, 1) translate(-28.000000, -3.000000) " cx="28" cy="3" r="3"></circle>
                </g>
            </g>
            <g id="Path-2">
                <mask id="mask-2" fill="white">
                    <use xlink:href="#path-1"></use>
                </mask>
                <use id="Mask" fill="#00ADF2" xlink:href="#path-1"></use>
                <path d="M61.3486641,2.12777456 C70.2429087,13.5137287 70.2429087,39.3936169 63.319282,33.2288621 C56.3956554,27.0641072 46.9501547,64.5094266 42.093323,64.0455217 C33.7503313,63.248633 34.2245059,64.5196544 43.5158468,67.858586 C54.9281754,71.0575994 67.0219014,67.3541686 79.7970248,56.7482935 C98.9597099,40.8394809 65.9121987,5.16203243 61.3486641,2.12777456 Z" fill="#FDD22D" mask="url(#mask-2)"></path>
            </g>
        </g>
    </g>
</svg>