<?xml version="1.0" encoding="UTF-8"?>
<svg width="76px" height="76px" viewBox="0 0 76 76" version="1.1" xmlns="http://www.w3.org/2000/svg" xmlns:xlink="http://www.w3.org/1999/xlink">
    <!-- Generator: Sketch 53.2 (72643) - https://sketchapp.com -->
    <title>icon-recycled</title>
    <desc>Created with Sketch.</desc>
    <defs>
        <path d="M38,76 C17.0131795,76 0,58.9868205 0,38 C0,17.0131795 17.0131795,0 38,0 C58.9868205,0 76,17.0131795 76,38 C76,58.9868205 58.9868205,76 38,76 Z M38,68 C54.0162577,68 67,55.0162577 67,39 C67,22.9837423 54.0162577,10 38,10 C21.9837423,10 9,22.9837423 9,39 C9,55.0162577 21.9837423,68 38,68 Z" id="path-1"></path>
    </defs>
    <g id="Page-1" stroke="none" stroke-width="1" fill="none" fill-rule="evenodd">
        <g id="icon-recycled">
            <g id="Group-9" transform="translate(14.000000, 19.000000)">
                <g id="Group-8" transform="translate(12.500000, 0.500000)">
                    <path d="M4.25124887,0.9566306 C4.99501099,0.365773181 6.36977864,0.0497618754 8.37555182,0.00859668384 C10.0364555,-0.0254906299 12.9090865,0.0417935544 16.9934448,0.210449237 L16.9934448,0.210447846 C18.6765664,0.279949097 20.2115499,1.192308 21.0769421,2.63758472 L23.7468135,7.09651926 C24.580775,8.48930403 24.1555418,10.2927974 22.787223,11.1663218 C18.9753028,13.5998229 16.240182,14.8165734 14.5818606,14.8165734 C13.0460458,14.8165734 12.5457409,13.3856815 10.9978579,10.8410656 C10.6915558,10.3375256 10.231571,9.47011728 9.61790359,8.23884081 C8.5098414,6.12522288 7.65022811,4.58917413 7.0390637,3.63069455 C6.42789929,2.67221496 5.49862768,1.78086031 4.25124887,0.9566306 Z" id="Rectangle" fill="#00ADF2"></path>
                    <path d="M3.02900837,2.44785501 C1.30068772,4.84682345 9.76996262e-15,6.88170113 9.76996262e-15,7.72837227 C9.799644e-15,8.29281971 1.08370205,10.231104 3.25110616,13.5432253 C4.24331194,13.5507163 5.11887361,13.5507163 5.87779119,13.5432253 C6.7701802,13.5344167 7.78733405,13.5344167 8.92925274,13.5432253 C10.2818068,11.8675184 10.9580838,10.6601239 10.9580838,9.92104179 C10.9043592,9.29278241 9.10728932,6.42241396 5.56687419,1.30993644 L5.56683995,1.30996015 C5.25242656,0.855936744 4.62948546,0.742760455 4.17546205,1.05717384 C4.11091836,1.10187065 4.05186306,1.15401309 3.99951628,1.21252384 C3.72383569,1.52066653 3.40033305,1.93244359 3.02900837,2.44785501 Z" id="Path-3" fill="#025A99"></path>
                </g>
                <g id="Group-8" transform="translate(12.753759, 24.600351) rotate(-120.000000) translate(-12.753759, -24.600351) translate(0.253759, 17.100351)">
                    <path d="M4.26670795,0.929298298 C5.01317467,0.355322519 6.39294148,0.0483401075 8.40600837,0.00835106431 C10.080059,-0.0249035092 12.9806355,0.0411585989 17.1077379,0.206537389 L17.1077377,0.206541956 C18.767458,0.27304928 20.2857964,1.15945446 21.1596674,2.57205643 L23.7570853,6.77078327 C24.6287429,8.17980728 24.1931213,10.028665 22.7840972,10.9003225 C22.7823285,10.9014167 22.7805586,10.9025091 22.7787876,10.9035996 C19.0006021,13.2300283 16.2859681,14.3932427 14.6348855,14.3932427 C13.093486,14.3932427 12.5913618,13.0032335 11.0378501,10.5313209 C10.7304342,10.0421677 10.2687768,9.1995425 9.65287779,8.00344536 C8.54078628,5.95021652 7.67804712,4.45805487 7.06466029,3.52696042 C6.45127346,2.59586596 5.51862269,1.72997859 4.26670795,0.929298298 Z" id="Rectangle" fill="#00ADF2"></path>
                    <path d="M3.04002295,2.37791629 C1.30541749,4.70834278 9.76996262e-15,6.68508109 9.76996262e-15,7.50756164 C9.79975193e-15,8.055882 1.08764279,9.93878678 3.26292837,13.156276 C4.25874216,13.163553 5.1374877,13.163553 5.89916497,13.156276 C6.79479904,13.1477191 7.81565163,13.1477191 8.96172275,13.156276 C10.3191952,11.5284464 10.9979314,10.3555489 10.9979314,9.63758345 C10.9439599,9.02669175 9.13696177,6.233591 5.57693688,1.25828122 L5.57694306,1.2582768 C5.2555592,0.809127052 4.63091829,0.705552339 4.18176855,1.0269362 C4.12747193,1.06578751 4.07720259,1.10997875 4.031713,1.15884843 C3.75121656,1.46018708 3.4206532,1.86654304 3.04002295,2.37791629 Z" id="Path-3" fill="#025A99"></path>
                </g>
                <g id="Group-8" transform="translate(33.291696, 27.950192) rotate(-240.000000) translate(-33.291696, -27.950192) translate(20.791696, 20.450192)">
                    <path d="M4.26670795,0.929298298 C5.01317467,0.355322519 6.39294148,0.0483401075 8.40600837,0.00835106431 C10.080059,-0.0249035092 12.9806355,0.0411585989 17.1077379,0.206537389 L17.1077377,0.206541956 C18.767458,0.27304928 20.2857964,1.15945446 21.1596674,2.57205643 L23.7570853,6.77078327 C24.6287429,8.17980728 24.1931213,10.028665 22.7840972,10.9003225 C22.7823285,10.9014167 22.7805586,10.9025091 22.7787876,10.9035996 C19.0006021,13.2300283 16.2859681,14.3932427 14.6348855,14.3932427 C13.093486,14.3932427 12.5913618,13.0032335 11.0378501,10.5313209 C10.7304342,10.0421677 10.2687768,9.1995425 9.65287779,8.00344536 C8.54078628,5.95021652 7.67804712,4.45805487 7.06466029,3.52696042 C6.45127346,2.59586596 5.51862269,1.72997859 4.26670795,0.929298298 Z" id="Rectangle" fill="#00ADF2"></path>
                    <path d="M3.04002295,2.37791629 C1.30541749,4.70834278 9.76996262e-15,6.68508109 9.76996262e-15,7.50756164 C9.79975193e-15,8.055882 1.08764279,9.93878678 3.26292837,13.156276 C4.25874216,13.163553 5.1374877,13.163553 5.89916497,13.156276 C6.79479904,13.1477191 7.81565163,13.1477191 8.96172275,13.156276 C10.3191952,11.5284464 10.9979314,10.3555489 10.9979314,9.63758345 C10.9439599,9.02669175 9.13696177,6.233591 5.57693688,1.25828122 L5.57694306,1.2582768 C5.2555592,0.809127052 4.63091829,0.705552339 4.18176855,1.0269362 C4.12747193,1.06578751 4.07720259,1.10997875 4.031713,1.15884843 C3.75121656,1.46018708 3.4206532,1.86654304 3.04002295,2.37791629 Z" id="Path-3" fill="#025A99"></path>
                </g>
            </g>
            <g id="Path-2">
                <mask id="mask-2" fill="white">
                    <use xlink:href="#path-1"></use>
                </mask>
                <use id="Mask" fill="#00ADF2" xlink:href="#path-1"></use>
                <path d="M61.3486641,2.12777456 C70.2429087,13.5137287 70.2429087,39.3936169 63.319282,33.2288621 C56.3956554,27.0641072 46.9501547,64.5094266 42.093323,64.0455217 C33.7503313,63.248633 34.2245059,64.5196544 43.5158468,67.858586 C54.9281754,71.0575994 67.0219014,67.3541686 79.7970248,56.7482935 C98.9597099,40.8394809 65.9121987,5.16203243 61.3486641,2.12777456 Z" fill="#FDD22D" mask="url(#mask-2)"></path>
            </g>
        </g>
    </g>
</svg>