<?xml version="1.0" encoding="UTF-8"?>
<svg width="76px" height="76px" viewBox="0 0 76 76" version="1.1" xmlns="http://www.w3.org/2000/svg" xmlns:xlink="http://www.w3.org/1999/xlink">
    <!-- Generator: Sketch 53.2 (72643) - https://sketchapp.com -->
    <title>icon-skills</title>
    <desc>Created with Sketch.</desc>
    <defs>
        <path d="M38,76 C17.0131795,76 0,58.9868205 0,38 C0,17.0131795 17.0131795,0 38,0 C58.9868205,0 76,17.0131795 76,38 C76,58.9868205 58.9868205,76 38,76 Z M38,68 C54.0162577,68 67,55.0162577 67,39 C67,22.9837423 54.0162577,10 38,10 C21.9837423,10 9,22.9837423 9,39 C9,55.0162577 21.9837423,68 38,68 Z" id="path-1"></path>
    </defs>
    <g id="Page-1" stroke="none" stroke-width="1" fill="none" fill-rule="evenodd">
        <g id="icon-skills">
            <g id="Path-2">
                <mask id="mask-2" fill="white">
                    <use xlink:href="#path-1"></use>
                </mask>
                <use id="Mask" fill="#00ADF2" xlink:href="#path-1"></use>
                <path d="M61.3486641,2.12777456 C70.2429087,13.5137287 70.2429087,39.3936169 63.319282,33.2288621 C56.3956554,27.0641072 46.9501547,64.5094266 42.093323,64.0455217 C33.7503313,63.248633 34.2245059,64.5196544 43.5158468,67.858586 C54.9281754,71.0575994 67.0219014,67.3541686 79.7970248,56.7482935 C98.9597099,40.8394809 65.9121987,5.16203243 61.3486641,2.12777456 Z" fill="#FDD22D" mask="url(#mask-2)"></path>
            </g>
            <path d="M44.6820204,48.0171455 L43.3730684,48.7715943 C43.5195225,48.8844733 43.6428908,49.0132849 43.7331205,49.1634523 C44.4442397,50.3469534 43.869415,51.9981418 42.4492138,52.8514848 C41.0290125,53.7048278 39.3012359,53.4371818 38.5901167,52.2536808 C38.478636,52.0681458 38.398759,51.8711169 38.3487881,51.6674699 L32.7930914,54.8696412 L29.6373884,48.972782 C29.6971976,48.9611394 29.7568677,48.946831 29.8162995,48.9297892 C31.1435249,48.5492134 31.8492326,46.9495812 31.3925416,45.3569107 C30.9358507,43.7642402 29.4897008,42.7816432 28.1624753,43.162219 C27.7207617,43.2888783 27.3619591,43.6737837 27.0384873,44.1163827 L26.6171204,43.3290015 C26.2292885,43.9323838 25.8059212,44.5402651 25.2350363,44.7148022 C23.914655,45.1184832 22.4515766,44.1612748 21.9671593,42.5768172 C21.482742,40.9923596 22.1604248,39.3806547 23.4808061,38.9769736 C23.7316752,38.9002752 23.9876955,38.8727037 24.241176,38.889227 L21,32.83265 L27.8481574,29.2718639 C27.8029532,29.6688428 27.8593265,30.0683 28.0320799,30.4387708 C28.615594,31.6901207 30.305929,32.1369023 31.8075489,31.4366854 C33.3091688,30.7364686 34.0534407,29.1544111 33.4699266,27.9030612 C33.2741886,27.4832996 32.832502,27.1877724 32.3400751,26.9362345 L33.2279454,26.4745751 C33.2102845,26.4669789 33.1926272,26.4593278 33.1749737,26.4516274 C32.4837263,26.1501053 31.7550388,25.8215175 31.478506,25.2545413 C30.8732417,24.0135657 31.5897895,22.4187598 33.0789603,21.6924427 C34.568131,20.9661256 36.266006,21.3833388 36.8712703,22.6243144 C37.0768434,23.0458019 37.1299367,23.508106 37.0520674,23.9633363 C37.0214731,24.1421928 36.9855529,24.3395775 36.9395938,24.5446565 L43.7567307,21 L46.9351278,26.8534117 C46.5411384,26.7297829 46.1247981,26.7115454 45.717336,26.8207245 C44.3836708,27.178079 43.6501532,28.7651513 44.0789786,30.3655496 C44.507804,31.9659479 45.9365851,32.973634 47.2702503,32.6162794 C47.8795745,32.4530115 48.3411653,31.8004095 48.7690438,31.1793954 C48.867585,31.0363748 48.962238,30.8922839 49.0491174,30.7465851 L49.5036098,31.5835892 C49.7205588,31.3625567 49.9572976,31.1915967 50.2243398,31.1150236 C51.5515652,30.7344478 52.9977152,31.7170448 53.4544061,33.3097153 C53.8611838,34.7283179 53.3457625,36.1524435 52.2903557,36.7157265 L55.1506351,41.9832851 L49.0217258,45.5158426 C49.0219632,45.5134738 49.0222,45.5111083 49.0224361,45.5087459 C49.0683604,45.0491926 48.9831478,44.5917182 48.7486739,44.1855976 C48.058318,42.989866 46.3354756,42.6921069 44.9005977,43.5205341 C43.4657198,44.3489612 42.8621655,45.989866 43.5525215,47.1855976 C43.771939,47.5656399 44.2015927,47.8153332 44.6820204,48.0171455 Z" id="Combined-Shape" fill="#00ADF2"></path>
        </g>
    </g>
</svg>