<?xml version="1.0" encoding="UTF-8"?>
<svg width="76px" height="76px" viewBox="0 0 76 76" version="1.1" xmlns="http://www.w3.org/2000/svg" xmlns:xlink="http://www.w3.org/1999/xlink">
    <!-- Generator: Sketch 53.2 (72643) - https://sketchapp.com -->
    <title>icon-handclap</title>
    <desc>Created with Sketch.</desc>
    <defs>
        <path d="M38,76 C17.0131795,76 0,58.9868205 0,38 C0,17.0131795 17.0131795,0 38,0 C58.9868205,0 76,17.0131795 76,38 C76,58.9868205 58.9868205,76 38,76 Z M38,68 C54.0162577,68 67,55.0162577 67,39 C67,22.9837423 54.0162577,10 38,10 C21.9837423,10 9,22.9837423 9,39 C9,55.0162577 21.9837423,68 38,68 Z" id="path-1"></path>
    </defs>
    <g id="icon-handclap" stroke="none" stroke-width="1" fill="none" fill-rule="evenodd">
        <g id="icon-skills">
            <g id="Path-2">
                <mask id="mask-2" fill="white">
                    <use xlink:href="#path-1"></use>
                </mask>
                <use id="Mask" fill="#00ADF2" xlink:href="#path-1"></use>
                <path d="M61.3486641,2.12777456 C70.2429087,13.5137287 70.2429087,39.3936169 63.319282,33.2288621 C56.3956554,27.0641072 46.9501547,64.5094266 42.093323,64.0455217 C33.7503313,63.248633 34.2245059,64.5196544 43.5158468,67.858586 C54.9281754,71.0575994 67.0219014,67.3541686 79.7970248,56.7482935 C98.9597099,40.8394809 65.9121987,5.16203243 61.3486641,2.12777456 Z" fill="#FDD22D" mask="url(#mask-2)"></path>
            </g>
        </g>
        <path d="M31.375161,53.1302035 C32.1659407,52.8757686 33.0570765,52.4600147 34.0485686,51.8829419 C35.7271124,50.905988 37.9832593,46.4348759 40.8170093,38.4696057 C41.7484393,34.6354337 40.5433091,31.7856716 37.2016187,29.9203195 C32.8820724,27.6194524 29.6587157,27.6194524 27.5315487,29.9203195 L24.7393801,36.2150326 C24.2944715,33.8578332 23.3117351,32.6792335 21.7911709,32.6792335 C20.2706067,32.6792335 19.644451,33.6358763 19.9127039,35.549162 L20.5709363,42.538005 C19.5669291,41.5248691 18.9627772,40.9057731 18.9449019,40.8841816 C18.2129022,40 16.0347453,31.2264126 22.5272319,25.1854063 C26.8555563,21.1580689 32.3908626,20.0371601 39.1331509,21.8226802 L50.0025159,23.8785006 C52.2876874,24.5686503 53.4302732,25.6445852 53.4302732,27.1063053 C53.4302732,29.2988856 51.3075939,30.1909109 50.0025159,30.0813425 C49.1324639,30.0082968 47.4064902,29.8328005 44.8245949,29.5548535 L55.2339858,40 C57.8345719,42.5194699 58.6013691,44.3874209 57.5343776,45.603853 C55.9338903,47.428501 54.0116092,46.2134289 53.4302732,45.603853 C53.0427159,45.197469 51.0904676,43.2990207 47.5735283,39.9085081 C47.179267,39.6873711 46.8391321,39.6873711 46.5531238,39.9085081 C46.2671155,40.1296451 46.1684265,40.4548696 46.2570569,40.8841816 C51.8930113,45.9904117 54.8853209,48.7322714 55.2339858,49.1097605 C55.7569832,49.6759942 56.5848183,51.5215064 54.4499954,53.2839842 C52.3151725,55.046462 42.4047271,45.0061538 41.7401022,44.6516658 C41.0754774,44.2971777 40.0890089,45.4331583 41.0711608,46.1481728 C42.0094593,46.8312617 46.2570569,50.6295469 49.2508921,53.2839842 C50.4205453,54.3210389 50.012558,55.9754402 49.5206178,56.6060046 C49.0286775,57.2365689 47.9838833,57.5702317 46.9951997,57.1977964 C44.864019,56.3949846 42.0123195,52.6534045 38.2433231,50.0848581 C37.8569657,49.821558 37.2451826,49.1097605 36.7582752,49.6058808 C36.2713679,50.1020011 40.6601503,54.0178604 41.0711608,54.624384 C41.4821713,55.2309076 42.4696919,57.2481947 40.5408561,58.6979198 C40.1363265,59.0019668 38.172368,59.3728313 36.7582752,58.1642799 C35.3864761,56.9918746 33.3715421,55.0491183 31.375161,53.1302035 Z" id="Combined-Shape" fill="#00ADF2"></path>
        <path d="M31.7951171,31.1752312 L37.7732678,32.257242 C39.0301122,32.6204786 39.6585343,33.1867602 39.6585343,33.9560866 C39.6585343,35.1100762 38.4910607,35.5795632 37.7732678,35.5218956 C37.2947392,35.4834505 36.3454537,35.391084 34.9254113,35.2447961 L40.6505763,40.7422417 C42.0808986,42.0682785 42.5026371,43.0514106 41.9157917,43.6916379 C41.0355237,44.651979 39.9782691,44.0124674 39.6585343,43.6916379 C39.4453778,43.4777516 38.3716413,42.4785683 36.4373247,40.694088 C36.2204809,40.5777001 36.0334067,40.5777001 35.8761022,40.694088 C35.7187976,40.8104759 35.6645187,40.9816467 35.7132654,41.2076004 C38.8130403,43.8950899 40.4588106,45.3381739 40.6505763,45.5368524 C40.9382248,45.8348702 41.3935342,46.8061924 40.2193816,47.7338123 C39.045229,48.6614322 33.594484,43.3770595 33.2289403,43.1904868 C32.8633966,43.0039141 32.320839,43.6017986 32.8610225,43.9781221 C33.3770867,44.3376426 35.7132654,46.33674 37.3598748,47.7338123 C38.003184,48.2796306 37.778791,49.1503681 37.5082238,49.4822441 C37.2376567,49.81412 36.6630199,49.989732 36.1192439,49.7937134 C34.9470945,49.3711809 33.3786598,47.4019282 31.3057118,46.0500617 C31.0932152,45.9114827 30.6676418,45.68207 30.3542061,46.1127754 C30.0407704,46.5434808 32.5002374,48.4348699 32.7262932,48.7540929 C32.9523489,49.0733158 33.6302146,49.8202388 32.5693549,50.5832521 C32.3468637,50.7432768 31.2666865,50.9384686 30.4889355,50.3023889 C29.5558052,49.5392331 28.0816181,48.1559039 26.754841,46.9431514 C23.6762227,44.1291128 20.7205487,41.2423353 20.6915801,41.2076004 C19.3375938,39.5840937 19.090994,36.124564 22.6618616,32.9450871 C25.04244,30.8254358 28.0868585,30.2354838 31.7951171,31.1752312 Z" id="Path-4" fill="#00ADF2" transform="translate(30.971633, 40.742242) rotate(-108.000000) translate(-30.971633, -40.742242) "></path>
    </g>
</svg>